<?xml version="1.0" encoding="utf-8"?>
<!-- Generator: Adobe Illustrator 23.0.2, SVG Export Plug-In . SVG Version: 6.00 Build 0)  -->
<svg version="1.1" id="레이어_2" xmlns="http://www.w3.org/2000/svg" xmlns:xlink="http://www.w3.org/1999/xlink" x="0px"
	 y="0px" viewBox="0 0 20 20" style="enable-background:new 0 0 20 20;" xml:space="preserve">
<style type="text/css">
	.st0{fill:#575E75;}
</style>
<g>
	<path class="st0" d="M16.6,3.6c0.6,0.6,0.9,1.3,0.9,2.1c0,0.8-0.3,1.5-0.9,2.1s-1.3,0.9-2.1,0.9c-0.4,0-0.9-0.1-1.2-0.3
		c-0.4-0.2-0.7-0.4-1-0.8L8.4,9.6c0,0.2,0.1,0.4,0.1,0.6s0,0.4-0.1,0.6l3.8,1.9c0.3-0.3,0.6-0.6,1-0.8c0.4-0.2,0.8-0.3,1.2-0.3
		c0.8,0,1.5,0.3,2.1,0.9s0.9,1.3,0.9,2.1c0,0.8-0.3,1.5-0.9,2.1s-1.3,0.9-2.1,0.9s-1.5-0.3-2.1-0.9s-0.9-1.3-0.9-2.1
		c0-0.2,0-0.4,0.1-0.6l-3.8-1.9c-0.3,0.3-0.6,0.6-1,0.8c-0.4,0.2-0.8,0.3-1.2,0.3c-0.8,0-1.5-0.3-2.1-0.9S2.5,11,2.5,10.2
		c0-0.8,0.3-1.5,0.9-2.1s1.3-0.9,2.1-0.9c0.4,0,0.9,0.1,1.2,0.3c0.4,0.2,0.7,0.4,1,0.8l3.8-1.9c0-0.2-0.1-0.4-0.1-0.6
		c0-0.8,0.3-1.5,0.9-2.1s1.3-0.9,2.1-0.9S16,3,16.6,3.6z M4.4,9.1C4.2,9.4,4,9.8,4,10.2c0,0.4,0.1,0.8,0.4,1.1s0.6,0.4,1.1,0.4
		s0.8-0.1,1.1-0.4S7,10.6,7,10.2c0-0.4-0.1-0.8-0.4-1.1S5.9,8.7,5.5,8.7S4.7,8.8,4.4,9.1z M13.4,4.6C13.2,4.9,13,5.3,13,5.7
		c0,0.4,0.1,0.8,0.4,1.1s0.6,0.4,1.1,0.4s0.8-0.1,1.1-0.4S16,6.1,16,5.7c0-0.4-0.1-0.8-0.4-1.1s-0.6-0.4-1.1-0.4S13.7,4.3,13.4,4.6z
		 M13.4,13.6c-0.3,0.3-0.4,0.6-0.4,1.1c0,0.4,0.1,0.8,0.4,1.1s0.6,0.4,1.1,0.4s0.8-0.1,1.1-0.4s0.4-0.7,0.4-1.1
		c0-0.4-0.1-0.8-0.4-1.1s-0.6-0.4-1.1-0.4S13.7,13.3,13.4,13.6z"/>
</g>
</svg>
