<?xml version="1.0" encoding="utf-8"?>
<!-- Generator: Adobe Illustrator 22.1.0, SVG Export Plug-In . SVG Version: 6.00 Build 0)  -->
<svg version="1.1" id="레이어_1" xmlns="http://www.w3.org/2000/svg" xmlns:xlink="http://www.w3.org/1999/xlink" x="0px"
	 y="0px" viewBox="0 0 20 20" style="enable-background:new 0 0 20 20;" xml:space="preserve">
<style type="text/css">
	.st0{fill:#575E75;}
</style>
<title>Fullscreen</title>
<desc>Created with Sketch.</desc>
<g>
	<g>
		<path class="st0" d="M16.9,12.4c0.1,0.1,0.2,0.3,0.2,0.5v2.6c0,0.5-0.2,1-0.6,1.4c-0.4,0.4-0.8,0.6-1.4,0.6H4.9
			c-0.5,0-1-0.2-1.4-0.6C3.2,16.4,3,16,3,15.4v-2.6c0-0.2,0.1-0.3,0.2-0.5c0.1-0.1,0.3-0.2,0.5-0.2c0.2,0,0.3,0.1,0.5,0.2
			c0.1,0.1,0.2,0.3,0.2,0.5v2.6c0,0.2,0.1,0.3,0.2,0.5c0.1,0.1,0.3,0.2,0.5,0.2h10.3c0.2,0,0.3-0.1,0.5-0.2c0.1-0.1,0.2-0.3,0.2-0.5
			v-2.6c0-0.2,0.1-0.3,0.2-0.5c0.1-0.1,0.3-0.2,0.5-0.2C16.6,12.2,16.8,12.3,16.9,12.4z M10.5,3.5c0.1,0.1,0.2,0.3,0.2,0.5v7.4
			l2.1-2.1C12.9,9.1,13.1,9,13.3,9c0.2,0,0.3,0.1,0.5,0.2s0.2,0.3,0.2,0.5c0,0.2-0.1,0.3-0.2,0.5l-3.2,3.2c-0.1,0.1-0.3,0.2-0.5,0.2
			s-0.3-0.1-0.5-0.2l-3.2-3.2C6.3,10,6.2,9.8,6.2,9.7c0-0.2,0.1-0.3,0.2-0.5C6.5,9.1,6.7,9,6.9,9s0.3,0.1,0.5,0.2l2.1,2.1V3.9
			c0-0.2,0.1-0.3,0.2-0.5c0.1-0.1,0.3-0.2,0.5-0.2S10.4,3.3,10.5,3.5z"/>
	</g>
</g>
</svg>
